HIERARCHY
ROOT Hips
{
	OFFSET 0.000000 0.000000 0.000000
	CHANNELS 6 Xposition Yposition Zposition Xrotation Yrotation Zrotation
	JOINT LeftUpLeg_virtual
	{
		OFFSET 0.000000 0.000000 0.000000
		CHANNELS 3 Xrotation Yrotation Zrotation
		JOINT LeftUpLeg
		{
			OFFSET 15.427100 -6.655098 0.678600
			CHANNELS 3 Xrotation Yrotation Zrotation
			JOINT LeftLeg
			{
				OFFSET 4.081073 -39.591068 13.024000
				CHANNELS 3 Xrotation Yrotation Zrotation
				JOINT LeftFoot
				{
					OFFSET -4.081074 -37.707932 -15.979700
					CHANNELS 3 Xrotation Yrotation Zrotation
					JOINT LeftToeBase
					{
						OFFSET 5.346399 -15.068900 20.645000
						CHANNELS 3 Xrotation Yrotation Zrotation
						JOINT LeftToe_End
						{
							OFFSET 2.754700 0.931300 11.300900
							CHANNELS 3 Xrotation Yrotation Zrotation
							End Site
							{
								OFFSET 0 0 0
							}
						}
					}
				}
			}
		}
	}
	JOINT RightUpLeg_virtual
	{
		OFFSET 0.000000 0.000000 0.000000
		CHANNELS 3 Xrotation Yrotation Zrotation
		JOINT RightUpLeg
		{
			OFFSET -15.569500 -6.655098 0.678600
			CHANNELS 3 Xrotation Yrotation Zrotation
			JOINT RightLeg
			{
				OFFSET -4.081825 -39.591045 13.023800
				CHANNELS 3 Xrotation Yrotation Zrotation
				JOINT RightFoot
				{
					OFFSET 4.081824 -37.707954 -15.979600
					CHANNELS 3 Xrotation Yrotation Zrotation
					JOINT RightToeBase
					{
						OFFSET -5.346400 -15.068900 20.645000
						CHANNELS 3 Xrotation Yrotation Zrotation
						JOINT RightToe_End
						{
							OFFSET -2.754700 0.931300 11.300900
							CHANNELS 3 Xrotation Yrotation Zrotation
							End Site
							{
								OFFSET 0 0 0
							}
						}
					}
				}
			}
		}
	}
	JOINT Spine_virtual
	{
		OFFSET 0.000000 0.000000 0.000000
		CHANNELS 3 Xrotation Yrotation Zrotation
		JOINT Spine
		{
			OFFSET -0.279200 12.230698 -2.892100
			CHANNELS 3 Xrotation Yrotation Zrotation
			JOINT Spine1
			{
				OFFSET -0.232667 10.192268 -1.242267
				CHANNELS 3 Xrotation Yrotation Zrotation
				JOINT Spine1_split
				{
					OFFSET -0.232667 10.192268 -1.242267
					CHANNELS 3 Xrotation Yrotation Zrotation
					JOINT Spine2
					{
						OFFSET -0.232667 10.192268 -1.242267
						CHANNELS 3 Xrotation Yrotation Zrotation
						JOINT Neck_virtual
						{
							OFFSET 0.000000 0.000000 0.000000
							CHANNELS 3 Xrotation Yrotation Zrotation
							JOINT Neck
							{
								OFFSET -0.418800 17.814194 8.416900
								CHANNELS 3 Xrotation Yrotation Zrotation
								JOINT Head
								{
									OFFSET 0.000000 7.031097 3.806800
									CHANNELS 3 Xrotation Yrotation Zrotation
									JOINT HeadTop_End
									{
										OFFSET 0.000000 24.646606 12.978600
										CHANNELS 3 Xrotation Yrotation Zrotation
										End Site
										{
											OFFSET 0 0 0
										}
									}
								}
							}
						}
						JOINT LeftShoulder_virtual
						{
							OFFSET 0.000000 0.000000 0.000000
							CHANNELS 3 Xrotation Yrotation Zrotation
							JOINT LeftShoulder
							{
								OFFSET 8.476499 7.247704 -3.868750
								CHANNELS 3 Xrotation Yrotation Zrotation
								JOINT LeftShoulder_split
								{
									OFFSET 8.476499 7.247704 -3.868750
									CHANNELS 3 Xrotation Yrotation Zrotation
									JOINT LeftArm
									{
										OFFSET 9.308998 -2.777710 0.208600
										CHANNELS 3 Xrotation Yrotation Zrotation
										JOINT LeftForeArm
										{
											OFFSET 29.972298 0.000000 0.000000
											CHANNELS 3 Xrotation Yrotation Zrotation
											JOINT LeftHand
											{
												OFFSET 26.026505 0.000000 0.000000
												CHANNELS 3 Xrotation Yrotation Zrotation
												End Site
												{
													OFFSET 0 0 0
												}
											}
										}
									}
								}
							}
						}
						JOINT RightShoulder_virtual
						{
							OFFSET 0.000000 0.000000 0.000000
							CHANNELS 3 Xrotation Yrotation Zrotation
							JOINT RightShoulder
							{
								OFFSET -7.570500 7.247704 -3.868750
								CHANNELS 3 Xrotation Yrotation Zrotation
								JOINT RightShoulder_split
								{
									OFFSET -7.570500 7.247704 -3.868750
									CHANNELS 3 Xrotation Yrotation Zrotation
									JOINT RightArm
									{
										OFFSET -9.308998 -2.777710 0.208500
										CHANNELS 3 Xrotation Yrotation Zrotation
										JOINT RightForeArm
										{
											OFFSET -29.972300 0.000000 0.000000
											CHANNELS 3 Xrotation Yrotation Zrotation
											JOINT RightHand
											{
												OFFSET -26.026505 0.000000 0.000000
												CHANNELS 3 Xrotation Yrotation Zrotation
												End Site
												{
													OFFSET 0 0 0
												}
											}
										}
									}
								}
							}
						}
					}
				}
			}
		}
	}
}
MOTION
Frames: 7
Frame Time: 0.03333333
0.352803 80.427551 0.977398 0.000000 0.000000 0.000000 -30.179153 -55.121058 -10.652729 -20.003442 3.609960 22.556363 44.840936 -14.176086 -3.657678 -0.400836 4.439699 -23.712801 -10.897919 -1.084599 0.379425 0.000000 0.000000 0.000000 -26.164513 -51.801702 -8.126191 -16.512752 0.323819 -26.897737 44.842671 5.550627 -5.870982 -16.928366 -6.205866 18.383447 -6.025694 1.905738 -1.794551 0.000000 0.000000 0.000000 -24.970410 -43.899538 -9.512559 13.176155 5.586125 -0.589374 12.686708 2.696735 -7.024270 1.629471 -0.598944 1.490824 0.000000 0.000000 0.000000 11.032223 2.272998 -5.215159 3.830251 -1.237134 -0.166178 -17.486147 31.418498 -12.944356 0.000000 0.000000 0.000000 14.179456 1.635862 -4.786074 1.539299 -12.608284 6.305279 -7.971252 -1.594218 -2.307975 -26.300851 28.527895 -59.768253 170.627838 -52.137146 173.181823 0.000000 0.000000 0.000000 12.375180 1.696782 -4.357104 13.133755 28.382119 -0.788864 -6.619392 -3.162526 1.590442 -55.270516 42.227204 53.875795 170.010198 77.345445 -171.451545 0.000000 0.000000 0.000000 
-0.838026 80.238647 -1.514881 0.000000 0.000000 0.000000 -27.220758 -54.002122 -7.668475 -22.780785 3.880597 19.657213 40.654874 -12.315165 -3.613177 2.394074 3.249147 -19.666992 -11.045684 -0.974186 -0.150809 0.000000 0.000000 0.000000 -24.241747 -50.869074 -6.073228 -16.933048 -0.022666 -27.341292 49.275703 5.583187 -6.228293 -17.489357 -6.856782 17.494444 -5.027257 1.641310 -1.560239 0.000000 0.000000 0.000000 -22.990314 -43.286201 -7.325040 13.591746 5.079001 -1.278803 13.197012 2.717400 -7.055707 1.951166 0.276408 1.798692 0.000000 0.000000 0.000000 11.852116 2.069154 -5.368297 5.022752 -0.634205 -0.486285 -16.752827 29.758830 -12.369848 0.000000 0.000000 0.000000 14.900099 1.472317 -4.891990 1.767018 -12.714607 5.984200 -5.465403 -3.301671 -2.183094 -28.179296 26.842319 -58.040386 170.026467 -53.718133 172.478929 0.000000 0.000000 0.000000 12.774012 1.533880 -4.514366 12.802326 27.721228 -0.801168 -6.722911 -1.875778 2.550005 -56.200139 40.852188 54.551922 173.532171 75.055118 -174.809662 0.000000 0.000000 0.000000 
-1.985921 80.400375 -5.026028 0.000000 0.000000 0.000000 -21.412645 -50.169522 -2.275347 -27.926250 2.814928 16.747229 34.653402 -11.904950 -3.200173 11.692382 -1.343927 -19.929088 -11.372500 -1.198702 0.343172 0.000000 0.000000 0.000000 -20.045639 -47.357557 -1.790753 -17.043028 -0.797516 -27.384667 54.197264 4.346639 -6.145907 -19.622464 -9.023823 14.223425 -4.059079 1.240592 -0.751738 0.000000 0.000000 0.000000 -18.869412 -40.351392 -3.073718 16.069729 4.707059 -2.333900 13.747964 2.918414 -7.134939 2.551258 0.619135 2.403156 0.000000 0.000000 0.000000 12.618399 2.136617 -5.731872 4.043308 -0.374534 -1.294333 -17.698231 26.199168 -9.868032 0.000000 0.000000 0.000000 15.377201 1.618903 -5.156300 1.890241 -13.591889 4.540368 -4.183490 -4.990114 -1.386764 -30.392931 21.236025 -54.038937 169.941090 -55.125637 172.855613 0.000000 0.000000 0.000000 13.371775 1.600810 -4.939554 12.496625 26.513280 -1.555811 -7.369782 -1.390486 3.791759 -57.290978 37.268975 53.479080 177.569742 72.572235 -178.652791 0.000000 0.000000 0.000000 
-2.987016 81.175697 -8.976929 0.000000 0.000000 0.000000 -14.945589 -44.033799 3.313807 -34.836376 0.813341 14.570455 28.216152 -12.084597 -2.824660 24.170175 -7.668971 -21.748941 -12.411897 -1.659545 2.102513 0.000000 0.000000 0.000000 -15.068290 -41.803462 2.996651 -17.060873 -1.860046 -26.939970 57.305758 2.518898 -5.659677 -22.345186 -11.510829 9.902100 -3.517058 0.882973 0.260386 0.000000 0.000000 0.000000 -13.732980 -35.638875 1.743316 20.383678 4.340153 -3.396724 14.287242 3.181760 -7.124634 2.558063 0.239222 3.379192 0.000000 0.000000 0.000000 13.303875 2.410304 -6.050124 1.151000 -0.376964 -2.539538 -19.692272 21.232090 -6.292066 0.000000 0.000000 0.000000 15.568699 1.956640 -5.424232 1.962431 -15.086378 2.675486 -4.141253 -5.775719 -0.708662 -32.956086 13.092557 -48.680602 170.561367 -56.176175 174.312165 0.000000 0.000000 0.000000 14.060652 1.842293 -5.387791 12.337820 25.266724 -3.300559 -8.494492 -1.644915 4.960968 -58.486473 32.509802 50.072380 -178.996746 71.140218 178.165553 0.000000 0.000000 0.000000 
-3.855409 82.368080 -13.518559 0.000000 0.000000 0.000000 -9.246667 -36.557474 7.769443 -43.228059 -1.777290 12.890421 22.944340 -11.745599 -2.516017 36.124246 -13.025372 -22.341685 -12.588691 -2.041749 4.144452 0.000000 0.000000 0.000000 -10.274035 -35.028755 7.069441 -17.176001 -2.862840 -26.246679 57.375085 1.015791 -4.940833 -24.312647 -12.953375 6.897018 -3.398497 0.723671 1.018786 0.000000 0.000000 0.000000 -8.841264 -29.715954 5.937950 26.221320 3.894304 -4.125276 14.743310 3.391685 -6.899426 2.454674 0.526553 3.633708 0.000000 0.000000 0.000000 13.933835 2.727660 -6.066977 -2.891393 -0.617335 -3.965288 -21.959540 15.652191 -2.655704 0.000000 0.000000 0.000000 15.530839 2.338245 -5.474984 2.040344 -16.957290 1.225791 -4.569656 -5.501123 -0.318719 -36.422100 4.133737 -42.968293 171.891041 -57.459766 176.706064 0.000000 0.000000 0.000000 14.757035 2.099387 -5.636106 12.335861 24.329252 -6.183641 -9.448581 -2.040792 5.533621 -60.511952 27.192096 44.123032 -175.726520 72.115760 175.115901 0.000000 0.000000 0.000000 
-4.736692 83.451263 -17.847420 0.000000 0.000000 0.000000 -5.029712 -28.829504 10.670046 -52.140226 -4.043616 11.300706 19.948117 -10.165186 -2.388088 44.526143 -14.996391 -21.222137 -10.035884 -2.026686 4.911971 0.000000 0.000000 0.000000 -6.429678 -28.212352 9.859865 -17.671615 -3.820128 -25.657519 54.569909 0.257133 -4.080139 -24.433552 -13.162054 6.716913 -3.601554 0.775970 1.244761 0.000000 0.000000 0.000000 -5.113746 -23.767986 8.967542 33.038393 3.401543 -4.315439 15.053110 3.442241 -6.411463 2.420575 0.823146 3.655031 0.000000 0.000000 0.000000 14.492645 2.947469 -5.681242 -7.056997 -0.937453 -5.375180 -23.772311 10.394362 0.425048 0.000000 0.000000 0.000000 15.407624 2.604612 -5.183592 2.279372 -18.827611 1.002256 -4.934187 -4.595922 -0.159319 -42.405885 -4.347348 -38.260438 173.929374 -60.212503 179.837774 0.000000 0.000000 0.000000 15.338513 2.276698 -5.537533 12.483640 23.824222 -10.143270 -10.268158 -2.334249 5.299116 -64.117007 22.472137 35.984449 -171.187012 76.250647 170.700457 0.000000 0.000000 0.000000 
-5.817526 83.987373 -21.566025 0.000000 0.000000 0.000000 -2.321265 -21.139205 12.378614 -60.533467 -4.854543 9.738865 19.529825 -6.642553 -2.402974 47.458678 -12.751006 -18.501804 -5.427530 -1.681245 4.162582 0.000000 0.000000 0.000000 -3.723467 -21.862864 11.546191 -18.590682 -4.852948 -25.213396 50.411601 0.080693 -3.170738 -23.530406 -12.559549 8.847264 -3.713093 0.961276 0.824034 0.000000 0.000000 0.000000 -2.663206 -18.123646 10.877317 40.215812 3.022111 -3.884103 15.144667 3.326906 -5.683252 2.235314 1.317097 3.081964 0.000000 0.000000 0.000000 14.920738 3.010378 -4.945541 -10.297860 -1.181976 -6.290370 -24.587462 5.767597 2.669135 0.000000 0.000000 0.000000 15.334155 2.706386 -4.570475 2.737608 -20.231399 2.219761 -4.610245 -3.533661 -0.222327 -51.814361 -12.067628 -35.922195 176.637626 -65.066206 -176.598803 0.000000 0.000000 0.000000 15.638367 2.273595 -5.081594 12.804818 23.613345 -14.786912 -10.893706 -2.233627 4.337116 -69.455832 19.084419 26.940151 -158.637960 82.948037 158.029841 0.000000 0.000000 0.000000 
